if (_typeface_js && _typeface_js.loadFace) _typeface_js.loadFace({"glyphs":{"S":{"x_min":74,"x_max":974,"ha":956,"o":"m 533 1290 q 453 1274 490 1290 q 390 1232 417 1259 q 348 1168 363 1205 q 333 1086 333 1131 q 348 1007 333 1045 q 390 942 363 970 q 453 897 417 914 q 533 881 490 881 q 692 849 613 881 q 833 758 771 817 q 935 616 896 699 q 974 431 974 532 q 961 334 974 385 q 925 233 949 283 q 864 137 901 183 q 777 57 827 92 q 664 1 727 22 q 523 -19 600 -19 q 396 -1 455 -19 q 286 47 336 16 q 197 120 236 78 q 130 212 158 162 q 88 318 103 262 q 74 429 74 373 l 193 429 q 198 374 193 407 q 217 305 203 341 q 254 231 231 268 q 315 166 278 195 q 404 118 352 137 q 525 100 456 100 q 649 122 589 100 q 754 187 709 145 q 827 291 800 230 q 855 429 855 352 q 834 551 855 491 q 772 658 813 612 q 670 733 731 704 q 528 762 609 762 q 398 792 456 762 q 299 870 339 823 q 236 975 258 917 q 214 1086 214 1032 q 221 1153 214 1116 q 245 1224 229 1189 q 288 1293 262 1260 q 349 1351 314 1326 q 431 1392 385 1377 q 534 1408 477 1408 q 649 1388 600 1408 q 734 1338 699 1369 q 793 1270 770 1307 q 829 1196 815 1232 q 847 1128 842 1159 q 853 1079 853 1096 l 734 1079 q 721 1153 734 1116 q 683 1221 709 1191 q 620 1271 658 1252 q 533 1290 583 1290 "},"\u0000":{"x_min":74,"x_max":242,"ha":223,"o":"m 94 1408 l 217 1408 l 217 422 l 94 422 l 94 1408 m 157 149 q 217 124 192 149 q 242 64 242 99 q 217 5 242 29 q 157 -19 192 -19 q 98 5 122 -19 q 74 64 74 29 q 98 124 74 99 q 157 149 122 149 "},"/":{"x_min":60.1875,"x_max":1020.453125,"ha":989,"o":"m 885 1408 l 1020 1408 l 202 -19 l 60 -19 l 885 1408 "},"K":{"x_min":74,"x_max":939.65625,"ha":895,"o":"m 197 1408 l 197 823 l 772 1399 l 939 1399 l 230 689 l 938 -19 l 765 -19 l 196 551 l 196 -19 l 74 -19 l 74 1408 l 197 1408 "},"7":{"x_min":74.078125,"x_max":1072.3125,"ha":1040,"o":"m 863 1285 l 74 1285 l 74 1408 l 1072 1408 l 247 -19 l 100 -19 l 863 1285 "},"d":{"x_min":74,"x_max":1060,"ha":1041,"o":"m 1060 1408 l 1060 -19 l 937 -19 l 937 146 q 880 91 910 115 q 818 50 849 68 q 756 20 787 32 q 697 1 725 8 q 562 -19 630 -16 q 430 0 493 -19 q 312 52 366 18 q 214 132 258 86 q 139 233 170 179 q 91 349 108 288 q 74 473 74 410 q 90 595 74 535 q 136 711 106 656 q 209 813 166 766 q 307 893 252 859 q 427 947 361 928 q 566 966 492 966 q 704 945 636 963 q 764 926 733 938 q 825 897 795 914 q 884 856 856 879 q 937 803 912 833 l 937 1408 l 1060 1408 m 939 473 q 909 619 939 551 q 829 738 880 687 q 710 818 778 788 q 565 848 642 848 q 419 818 487 848 q 300 738 351 788 q 220 619 250 687 q 191 473 191 551 q 220 327 191 396 q 300 208 250 259 q 419 128 351 158 q 565 99 487 99 q 710 128 642 99 q 829 208 778 158 q 909 327 880 259 q 939 473 939 396 "},",":{"x_min":74,"x_max":192,"ha":173,"o":"m 192 131 l 192 -186 l 74 -186 l 74 131 l 192 131 "},"Y":{"x_min":74,"x_max":1064,"ha":1045,"o":"m 197 1408 l 197 913 q 223 772 197 840 q 299 651 250 704 q 416 565 347 597 q 568 533 484 533 q 699 554 643 533 q 798 610 756 576 q 867 685 840 645 q 910 764 894 726 q 934 831 927 801 q 941 873 941 861 l 941 1408 l 1064 1408 l 1064 873 q 1050 785 1064 833 q 1011 689 1037 738 q 948 594 985 640 q 864 511 911 548 q 761 451 817 475 q 641 425 704 427 l 641 -19 l 518 -19 l 518 425 q 357 463 437 428 q 214 562 277 499 q 112 714 151 626 q 74 915 74 803 l 74 1408 l 197 1408 "},"E":{"x_min":74,"x_max":1059.109375,"ha":1041,"o":"m 1059 1284 l 197 1284 l 197 954 l 841 954 l 841 831 l 197 831 l 197 105 l 1059 105 l 1059 -18 l 74 -18 l 74 1407 l 1059 1407 l 1059 1284 "},"y":{"x_min":74,"x_max":1051,"ha":1032,"o":"m 195 949 l 195 461 q 226 307 195 375 q 308 189 257 238 q 425 114 359 140 q 561 88 491 88 q 658 102 611 88 q 746 141 705 116 q 821 198 787 165 q 879 267 854 231 q 916 341 903 303 q 930 414 930 379 l 930 949 l 1051 949 l 1051 -6 q 1037 -103 1051 -51 q 997 -208 1024 -155 q 929 -308 970 -260 q 832 -395 888 -357 q 706 -454 777 -432 q 551 -477 636 -477 l 551 -354 q 709 -323 640 -354 q 828 -244 779 -293 q 903 -133 877 -195 q 929 -7 929 -71 l 928 136 q 876 82 904 106 q 817 41 848 59 q 756 12 787 24 q 698 -6 725 0 q 562 -27 631 -24 q 367 12 456 -27 q 212 118 277 51 q 110 273 147 185 q 74 457 74 361 l 74 949 l 195 949 "},"\"":{"x_min":74,"x_max":329,"ha":310,"o":"m 329 1408 l 329 1076 l 208 1076 l 208 1408 l 329 1408 m 195 1408 l 195 1076 l 74 1076 l 74 1408 l 195 1408 "},"g":{"x_min":74,"x_max":1047,"ha":1028,"o":"m 1047 949 l 1047 -36 q 1034 -120 1047 -73 q 994 -216 1021 -167 q 927 -312 968 -264 q 832 -395 887 -359 q 706 -454 776 -432 q 548 -477 635 -477 l 548 -356 q 668 -339 614 -356 q 764 -296 722 -323 q 837 -235 806 -269 q 887 -165 867 -201 q 916 -96 906 -130 q 926 -35 926 -62 l 925 142 q 872 88 900 112 q 814 47 844 65 q 754 18 784 30 q 697 0 724 6 q 566 -22 632 -18 q 374 15 464 -22 q 218 117 285 52 q 112 270 151 182 q 74 463 74 359 q 112 655 74 566 q 217 809 150 744 q 372 911 284 874 q 561 949 461 949 q 690 927 625 946 q 809 877 746 911 q 926 781 873 843 l 925 949 l 1047 949 m 928 462 q 899 605 928 538 q 820 722 870 672 q 703 801 770 772 q 560 830 636 830 q 417 801 484 830 q 300 722 350 772 q 221 605 250 672 q 193 462 193 538 q 221 319 193 386 q 300 202 250 252 q 417 123 350 152 q 560 95 484 95 q 703 123 636 95 q 820 202 770 152 q 899 319 870 252 q 928 462 928 386 "},"e":{"x_min":74.078125,"x_max":1030.640625,"ha":1012,"o":"m 188 441 q 200 385 191 419 q 225 313 208 351 q 270 236 243 274 q 337 166 297 197 q 430 115 376 134 q 552 96 483 96 q 573 97 552 96 q 625 105 593 98 q 696 127 657 112 q 774 171 736 143 q 845 243 813 199 q 896 349 877 286 l 1016 349 q 967 227 997 280 q 900 136 937 175 q 824 71 863 97 q 745 27 784 44 q 551 -19 653 -13 q 400 2 468 -19 q 280 62 333 24 q 187 148 226 99 q 124 251 149 196 q 86 361 99 305 q 74 468 74 417 q 86 562 74 510 q 123 666 98 613 q 186 767 148 718 q 278 853 225 815 q 399 914 331 891 q 550 938 467 938 q 694 917 628 938 q 814 860 761 896 q 907 776 867 825 q 975 672 948 727 q 1016 558 1002 617 q 1030 441 1030 499 l 188 441 m 904 554 q 852 667 886 621 q 780 744 819 714 q 700 790 740 774 q 626 814 659 806 q 572 823 593 821 q 550 824 550 824 q 529 823 550 824 q 475 814 508 821 q 401 790 442 806 q 321 744 361 774 q 249 667 282 714 q 197 554 215 621 l 904 554 "},"J":{"x_min":74,"x_max":1060,"ha":1041,"o":"m 1060 1408 l 1060 440 q 1042 327 1060 383 q 993 220 1025 271 q 917 125 961 169 q 818 49 872 81 q 701 0 763 17 q 570 -19 638 -19 q 462 -5 519 -19 q 350 33 405 7 q 245 101 295 60 q 157 199 195 142 q 96 329 119 256 q 74 491 74 401 l 197 491 q 220 349 197 419 q 290 224 244 279 q 406 134 336 168 q 567 100 476 100 q 720 131 652 100 q 836 212 788 162 q 910 321 884 261 q 937 440 937 382 l 937 1408 l 1060 1408 "},"|":{"x_min":74,"x_max":197,"ha":178,"o":"m 197 1408 l 197 -19 l 74 -19 l 74 1408 l 197 1408 "},"^":{"x_min":61.109375,"x_max":647.28125,"ha":615,"o":"m 353 1426 l 647 913 l 513 913 l 353 1199 l 193 913 l 61 913 l 353 1426 "},"q":{"x_min":74,"x_max":1416.59375,"ha":1028,"o":"m 1036 944 l 1036 0 q 1069 -159 1036 -91 q 1156 -271 1102 -226 q 1278 -338 1210 -316 q 1416 -361 1347 -361 l 1416 -481 q 1267 -461 1336 -481 q 1143 -408 1198 -442 q 1045 -328 1087 -373 q 974 -228 1002 -282 q 931 -117 946 -175 q 917 -1 917 -59 l 917 141 q 861 87 891 110 q 802 48 832 65 q 742 19 772 30 q 685 0 713 7 q 555 -20 620 -17 q 375 15 462 -20 q 221 114 288 50 q 114 266 154 178 q 74 461 74 355 q 89 583 74 523 q 134 696 104 643 q 206 795 163 750 q 301 874 248 841 q 419 925 354 906 q 555 944 483 944 q 684 923 619 941 q 802 875 740 907 q 917 781 864 842 l 916 944 l 1036 944 m 917 460 q 888 601 917 535 q 810 717 859 668 q 694 795 761 766 q 553 824 628 824 q 411 795 478 824 q 296 717 345 766 q 218 601 246 668 q 190 460 190 535 q 218 318 190 385 q 296 203 246 252 q 411 125 345 154 q 553 97 478 97 q 694 125 628 97 q 810 203 761 154 q 888 318 859 252 q 917 460 917 385 "},"b":{"x_min":74,"x_max":1060,"ha":1041,"o":"m 74 -19 l 74 1408 l 197 1408 l 197 800 q 251 854 222 830 q 310 895 280 878 q 372 924 341 912 q 431 944 403 936 q 565 966 497 962 q 759 927 669 966 q 916 820 849 888 q 1021 664 983 753 q 1060 475 1060 575 q 1021 286 1060 375 q 916 128 983 196 q 759 20 849 60 q 567 -19 670 -19 q 434 2 499 -16 q 375 23 406 10 q 313 53 344 35 q 252 96 282 71 q 197 153 222 120 l 197 -19 l 74 -19 m 941 473 q 911 618 941 550 q 831 737 882 686 q 712 817 780 787 q 567 847 645 847 q 421 817 489 847 q 302 737 353 787 q 222 618 252 686 q 193 473 193 550 q 222 327 193 395 q 302 208 252 259 q 421 128 353 158 q 567 99 489 99 q 712 128 645 99 q 831 208 780 158 q 911 327 882 259 q 941 473 941 395 "},"D":{"x_min":74,"x_max":890,"ha":871,"o":"m 175 1408 q 362 1382 272 1408 q 532 1310 452 1357 q 677 1199 611 1264 q 790 1056 743 1135 q 864 886 838 977 q 890 697 890 795 q 864 507 890 599 q 794 337 839 416 q 684 192 749 258 q 541 79 620 126 q 370 6 462 32 q 179 -19 279 -19 l 74 -19 l 74 1408 l 175 1408 m 771 694 q 743 879 771 796 q 671 1027 716 962 q 566 1141 625 1093 q 444 1222 508 1190 q 316 1271 380 1254 q 197 1291 252 1288 l 197 99 q 342 122 271 100 q 477 180 414 143 q 595 271 541 218 q 688 389 648 324 q 749 531 727 454 q 771 694 771 608 "},"z":{"x_min":51.859375,"x_max":1051.9375,"ha":1030,"o":"m 1051 956 l 294 95 l 1048 95 l 1048 -19 l 51 -19 l 806 842 l 74 842 l 74 956 l 1051 956 "},"w":{"x_min":74,"x_max":1932,"ha":1913,"o":"m 198 970 l 198 435 q 207 378 198 412 q 235 307 216 345 q 285 231 255 269 q 356 164 315 194 q 450 115 398 134 q 569 97 503 97 q 711 128 643 97 q 830 208 778 159 q 911 315 881 257 q 942 428 942 373 l 942 970 l 1065 970 l 1065 427 q 1097 308 1065 367 q 1182 202 1129 249 q 1301 126 1235 155 q 1435 97 1367 97 q 1508 107 1468 97 q 1590 137 1548 117 q 1671 188 1632 158 q 1741 259 1710 219 q 1790 352 1771 300 q 1809 464 1809 403 l 1809 970 l 1932 970 l 1932 464 q 1919 366 1932 419 q 1880 259 1907 313 q 1814 155 1854 205 q 1718 67 1773 105 q 1592 5 1663 28 q 1436 -18 1522 -18 q 1263 14 1345 -14 q 1191 44 1227 26 q 1120 90 1154 63 q 1055 154 1085 118 q 1003 239 1025 191 q 948 154 979 191 q 883 90 917 118 q 811 44 848 63 q 739 14 774 26 q 569 -18 658 -14 q 427 2 493 -18 q 306 57 361 22 q 207 137 250 92 q 135 234 164 183 q 89 337 105 285 q 74 438 74 389 l 74 970 l 198 970 "},"$":{"x_min":74,"x_max":964,"ha":946,"o":"m 331 1082 q 345 1004 331 1041 q 386 940 360 967 q 449 896 413 912 q 529 880 486 880 q 685 848 607 880 q 825 758 764 817 q 925 617 887 700 q 964 434 964 535 q 953 345 964 392 q 922 252 943 298 q 869 162 901 205 q 794 83 838 118 q 696 24 751 48 q 575 -7 641 0 l 575 -199 l 463 -199 l 463 -7 q 303 44 375 3 q 180 145 231 84 q 101 280 129 205 q 74 433 74 355 l 193 433 q 198 379 193 411 q 216 310 203 346 q 253 238 230 274 q 312 173 276 202 q 400 126 349 144 q 520 108 452 108 q 643 130 584 108 q 747 194 702 152 q 819 296 792 236 q 846 432 846 356 q 825 553 846 494 q 764 658 805 612 q 664 732 724 704 q 523 761 604 761 q 394 791 452 761 q 296 867 337 821 q 234 971 256 914 q 212 1081 212 1028 q 226 1172 212 1123 q 271 1267 240 1222 q 352 1348 302 1312 q 469 1394 401 1383 l 469 1588 l 581 1588 l 581 1396 q 676 1365 635 1387 q 746 1313 717 1343 q 794 1248 775 1282 q 824 1180 813 1213 q 840 1118 835 1146 q 845 1073 845 1090 l 726 1073 q 713 1147 726 1110 q 676 1214 701 1184 q 614 1263 651 1244 q 528 1282 577 1282 q 450 1267 486 1282 q 387 1225 414 1252 q 346 1162 361 1198 q 331 1082 331 1125 "},"™":{"x_min":73.984375,"x_max":916,"ha":897,"o":"m 513 1433 l 714 1235 l 916 1433 l 916 968 l 817 968 l 817 1203 l 714 1099 l 612 1203 l 612 969 l 513 969 l 513 1433 m 508 1408 l 508 1309 l 348 1309 l 348 969 l 249 969 l 249 1308 l 73 1308 l 73 1408 l 508 1408 "},"\\":{"x_min":60.1875,"x_max":1020.453125,"ha":989,"o":"m 202 1408 l 1020 -19 l 885 -19 l 60 1408 l 202 1408 "},"~":{"x_min":68.53125,"x_max":818.578125,"ha":795,"o":"m 574 642 q 488 654 523 642 q 425 681 454 666 q 397 694 411 687 q 369 705 384 700 q 339 713 355 710 q 305 716 324 716 q 256 702 282 713 q 204 671 234 692 q 143 612 175 650 l 68 684 q 148 765 106 736 q 225 806 189 793 q 305 823 265 822 q 386 811 350 823 q 455 784 423 798 q 513 759 482 771 q 574 747 543 747 q 631 760 601 748 q 687 794 656 771 q 747 859 717 817 l 818 790 q 745 704 787 735 q 665 661 704 674 q 574 642 621 644 "},"-":{"x_min":74.078125,"x_max":687.09375,"ha":669,"o":"m 687 733 l 687 606 l 74 606 l 74 733 l 687 733 "},"Q":{"x_min":74,"x_max":1526.859375,"ha":1482,"o":"m 786 -19 q 580 10 676 -19 q 406 91 485 40 q 265 211 327 142 q 161 359 203 280 q 96 524 118 439 q 74 694 74 610 q 99 881 74 790 q 169 1050 124 971 q 280 1195 215 1130 q 423 1308 344 1261 q 593 1382 502 1356 q 783 1408 684 1408 q 984 1380 890 1408 q 1159 1304 1079 1353 q 1302 1189 1238 1256 q 1409 1043 1365 1122 q 1476 875 1453 964 q 1500 694 1500 786 q 1474 518 1496 605 q 1451 440 1465 481 q 1416 359 1437 399 q 1368 278 1396 318 q 1303 204 1340 238 l 1526 -19 l 1352 -19 l 1210 122 q 1141 75 1177 95 q 1070 40 1106 55 q 998 15 1033 25 q 932 -1 963 5 q 786 -19 857 -17 m 1076 434 l 1223 287 q 1275 348 1253 315 q 1314 415 1297 381 q 1342 484 1331 450 q 1361 549 1354 518 q 1381 694 1378 621 q 1358 854 1381 777 q 1297 996 1336 930 q 1202 1117 1257 1063 q 1080 1209 1146 1171 q 938 1269 1014 1248 q 783 1290 863 1290 q 629 1268 704 1290 q 488 1207 554 1246 q 368 1114 422 1168 q 274 993 314 1059 q 213 852 235 927 q 192 698 192 777 q 210 555 192 626 q 263 416 228 483 q 349 292 298 349 q 467 191 401 234 q 613 123 533 148 q 787 99 693 99 q 905 112 845 100 q 958 125 930 118 q 1015 144 986 133 q 1073 170 1044 155 q 1129 206 1102 186 l 901 434 l 1076 434 "},"M":{"x_min":74,"x_max":1805,"ha":1786,"o":"m 74 -19 l 74 1422 l 934 562 l 1805 1433 l 1805 -19 l 1688 -19 l 1688 1153 l 937 402 l 192 1145 l 191 -19 l 74 -19 "},"C":{"x_min":74,"x_max":1458.625,"ha":1431,"o":"m 1333 935 q 1263 1051 1303 1000 q 1180 1138 1224 1101 q 1090 1201 1136 1175 q 1000 1243 1043 1226 q 787 1288 897 1282 q 609 1262 690 1288 q 461 1191 527 1236 q 344 1087 394 1146 q 259 961 293 1027 q 207 825 225 895 q 190 690 190 755 q 208 556 190 625 q 262 421 227 486 q 349 296 297 355 q 467 193 401 237 q 615 122 534 148 q 789 97 695 97 q 996 139 896 102 q 1084 180 1039 155 q 1172 241 1129 205 q 1255 326 1216 277 q 1325 438 1294 374 l 1458 438 q 1377 287 1424 352 q 1277 174 1330 222 q 1166 93 1223 126 q 1054 39 1109 60 q 787 -18 927 -11 q 563 14 664 -18 q 384 101 463 46 q 246 227 304 155 q 149 378 188 299 q 92 539 111 457 q 74 694 74 620 q 93 849 74 768 q 152 1010 112 931 q 252 1161 192 1089 q 390 1287 311 1233 q 569 1374 469 1342 q 789 1407 669 1407 q 1003 1376 908 1407 q 1172 1297 1099 1345 q 1298 1192 1245 1250 q 1384 1082 1351 1135 q 1433 989 1417 1030 q 1449 935 1449 949 l 1333 935 "},"[":{"x_min":74,"x_max":441.875,"ha":423,"o":"m 441 1292 l 190 1292 l 190 98 l 441 98 l 441 -19 l 74 -19 l 74 1407 l 441 1407 l 441 1292 "},"L":{"x_min":74,"x_max":1058.1875,"ha":1040,"o":"m 197 1408 l 197 105 l 1058 105 l 1058 -18 l 74 -18 l 74 1408 l 197 1408 "}," ":{"x_min":0,"x_max":0,"ha":602},"{":{"x_min":66.46875,"x_max":722.40625,"ha":704,"o":"m 722 1284 q 607 1258 659 1284 q 514 1190 556 1232 q 442 1094 473 1147 q 391 987 412 1041 q 361 883 371 933 q 351 797 351 833 l 233 680 l 352 561 q 361 502 352 543 q 389 411 370 462 q 438 306 408 360 q 508 207 467 252 q 603 133 550 162 q 722 105 656 105 l 722 -18 q 569 13 637 -18 q 449 95 502 45 q 358 205 396 144 q 294 323 320 266 q 256 429 269 381 q 242 502 243 477 l 66 678 l 235 847 q 249 937 235 882 q 290 1055 263 993 q 356 1180 316 1118 q 450 1293 396 1243 q 571 1375 503 1344 q 722 1407 638 1407 l 722 1284 "},"X":{"x_min":50.9375,"x_max":1542.71875,"ha":1502,"o":"m 866 647 l 1457 -19 l 1309 -19 l 797 564 l 287 -19 l 137 -19 l 729 646 l 50 1407 l 200 1407 l 798 732 l 1395 1408 l 1542 1408 l 866 647 "},"P":{"x_min":74,"x_max":1038,"ha":1019,"o":"m 195 1408 l 195 1245 q 246 1299 218 1276 q 304 1339 274 1321 q 365 1368 334 1356 q 423 1387 396 1380 q 557 1408 489 1405 q 752 1368 663 1408 q 904 1262 841 1329 q 1002 1108 967 1195 q 1038 925 1038 1020 q 1003 741 1038 828 q 905 588 968 654 q 753 483 841 522 q 559 444 665 444 q 424 464 490 446 q 366 483 396 471 q 305 512 335 494 q 247 551 275 529 q 195 604 219 574 l 195 -19 l 74 -19 l 74 1408 l 195 1408 m 919 926 q 890 1067 919 1001 q 812 1182 861 1133 q 697 1260 763 1231 q 556 1289 631 1289 q 414 1260 481 1289 q 299 1182 348 1231 q 221 1067 250 1133 q 193 926 193 1001 q 221 784 193 851 q 299 669 249 718 q 414 591 348 619 q 556 563 481 563 q 697 591 631 563 q 812 669 763 619 q 890 784 861 718 q 919 926 919 851 "},"%":{"x_min":60.1875,"x_max":1019.53125,"ha":993,"o":"m 355 1407 q 465 1384 413 1407 q 555 1324 516 1362 q 615 1235 593 1286 q 638 1125 638 1184 q 615 1016 638 1067 q 555 926 593 965 q 465 866 516 888 q 355 844 413 844 q 245 866 297 844 q 156 926 194 888 q 96 1016 118 965 q 74 1125 74 1067 q 96 1235 74 1184 q 156 1324 118 1286 q 245 1384 194 1362 q 355 1407 297 1407 m 884 1407 l 1019 1407 l 202 -16 l 60 -16 l 884 1407 m 449 263 q 471 372 449 321 q 531 462 493 423 q 620 522 569 500 q 730 545 672 545 q 840 522 788 545 q 929 462 891 500 q 989 372 967 423 q 1012 263 1012 321 q 989 153 1012 204 q 929 64 967 102 q 840 4 891 26 q 730 -18 788 -18 q 620 4 672 -18 q 531 64 569 26 q 471 153 493 102 q 449 263 449 204 m 514 1125 q 501 1186 514 1158 q 467 1236 488 1215 q 417 1270 446 1258 q 355 1283 388 1283 q 294 1270 323 1283 q 244 1236 265 1258 q 210 1186 223 1215 q 198 1125 198 1158 q 210 1064 198 1092 q 244 1014 223 1035 q 294 980 265 992 q 355 968 323 968 q 417 980 388 968 q 467 1014 446 992 q 501 1064 488 1035 q 514 1125 514 1092 m 730 106 q 791 118 762 106 q 842 152 820 130 q 876 202 863 173 q 889 263 889 230 q 876 324 889 296 q 842 374 863 353 q 791 408 820 396 q 730 421 762 421 q 668 408 698 421 q 618 374 639 396 q 584 324 597 353 q 572 263 572 296 q 584 202 572 230 q 618 152 597 173 q 668 118 639 130 q 730 106 698 106 "},"#":{"x_min":60.1875,"x_max":1435.296875,"ha":1403,"o":"m 1026 1408 l 783 986 l 1050 986 l 1293 1408 l 1435 1408 l 1191 986 l 1408 986 l 1408 871 l 1118 871 l 913 506 l 1118 506 l 1118 391 l 840 391 l 611 -18 l 469 -18 l 705 390 l 433 390 l 202 -19 l 60 -19 l 298 390 l 74 390 l 74 507 l 364 507 l 575 871 l 363 871 l 363 986 l 642 986 l 885 1408 l 1026 1408 m 773 506 l 982 871 l 709 871 l 500 506 l 773 506 "},"_":{"x_min":74.078125,"x_max":1127.875,"ha":1109,"o":"m 1127 16 l 1127 -105 l 74 -105 l 74 16 l 1127 16 "},"+":{"x_min":73.984375,"x_max":642.09375,"ha":624,"o":"m 299 733 l 299 957 l 417 957 l 417 733 l 642 733 l 642 614 l 418 614 l 418 389 l 299 389 l 299 614 l 73 614 l 73 733 l 299 733 "},")":{"x_min":74.109375,"x_max":574,"ha":555,"o":"m 74 1407 q 272 1351 180 1407 q 431 1200 363 1296 q 536 974 498 1105 q 574 694 574 844 q 556 501 574 594 q 507 330 538 409 q 430 187 475 251 q 329 76 385 122 q 209 6 274 31 q 74 -19 144 -19 l 74 104 q 210 143 142 104 q 331 258 277 182 q 417 444 384 334 q 451 696 451 554 q 418 947 451 837 q 332 1131 385 1056 q 211 1244 278 1206 q 74 1283 143 1283 l 74 1407 "},"'":{"x_min":74,"x_max":197,"ha":178,"o":"m 197 1408 l 197 1075 l 74 1075 l 74 1408 l 197 1408 "},"}":{"x_min":73.59375,"x_max":730.453125,"ha":704,"o":"m 561 847 l 730 678 l 555 502 q 540 429 553 477 q 502 323 527 381 q 439 205 477 266 q 347 95 400 144 q 226 13 294 45 q 73 -18 158 -18 l 73 105 q 192 133 139 105 q 287 207 245 162 q 357 306 328 252 q 406 411 387 360 q 434 502 425 462 q 444 561 444 543 l 562 680 l 446 797 q 435 883 446 833 q 405 987 425 933 q 353 1094 384 1041 q 281 1190 322 1147 q 188 1258 240 1232 q 73 1284 135 1284 l 73 1407 q 225 1375 157 1407 q 346 1293 293 1344 q 440 1180 400 1243 q 505 1055 479 1118 q 545 937 532 993 q 561 847 559 882 "},"a":{"x_min":74,"x_max":1035,"ha":1016,"o":"m 1035 940 l 1035 -18 l 915 -18 l 915 144 q 800 50 863 83 q 682 2 738 18 q 552 -18 617 -15 q 364 20 451 -18 q 212 125 276 59 q 111 278 148 191 q 74 461 74 364 q 111 643 74 556 q 212 796 148 730 q 364 901 276 862 q 554 940 452 940 q 684 919 619 937 q 742 900 712 912 q 802 871 772 889 q 861 832 832 854 q 915 778 890 809 l 915 940 l 1035 940 m 918 461 q 889 602 918 536 q 811 718 860 669 q 696 796 762 767 q 554 825 629 825 q 413 796 479 825 q 297 718 346 767 q 219 602 248 669 q 191 461 191 536 q 219 319 191 385 q 297 203 248 252 q 413 125 346 154 q 554 97 479 97 q 696 125 629 97 q 811 203 762 154 q 889 319 860 252 q 918 461 918 385 "},"T":{"x_min":73.8125,"x_max":1059.84375,"ha":1041,"o":"m 1059 1407 l 1059 1284 l 645 1284 l 645 -19 l 522 -19 l 522 1284 l 73 1284 l 73 1407 l 1059 1407 "},"=":{"x_min":74.078125,"x_max":643.5625,"ha":625,"o":"m 643 713 l 74 713 l 74 832 l 643 832 l 643 713 m 643 634 l 643 515 l 74 515 l 74 634 l 643 634 "},"N":{"x_min":74,"x_max":1079,"ha":1060,"o":"m 74 1444 l 956 294 l 956 1407 l 1079 1407 l 1079 -49 l 197 1098 l 197 -18 l 74 -18 l 74 1444 "},"2":{"x_min":48.390625,"x_max":945,"ha":926,"o":"m 945 914 q 934 812 945 861 q 905 720 923 763 q 863 641 887 677 q 812 578 839 605 l 337 105 l 945 105 l 945 -18 l 48 -18 l 731 665 q 768 711 751 685 q 799 770 786 738 q 821 839 813 802 q 829 916 829 876 q 820 980 829 942 q 793 1058 812 1017 q 746 1140 775 1099 q 674 1212 716 1180 q 577 1264 632 1244 q 452 1284 522 1284 q 437 1283 452 1284 q 399 1279 423 1283 q 345 1267 376 1275 q 283 1244 315 1259 q 219 1206 251 1229 q 161 1149 187 1183 l 78 1232 q 136 1289 105 1264 q 197 1333 166 1314 q 260 1364 228 1351 q 319 1384 291 1376 q 452 1407 385 1404 q 668 1361 576 1407 q 822 1243 761 1315 q 914 1084 883 1171 q 945 914 945 997 "},"j":{"x_min":-250.359375,"x_max":281,"ha":262,"o":"m 114 1324 q 138 1383 114 1359 q 197 1408 162 1408 q 256 1383 232 1408 q 281 1324 281 1359 q 256 1265 281 1289 q 197 1241 232 1241 q 138 1265 162 1241 q 114 1324 114 1289 m 254 971 l 254 20 q 210 -185 254 -95 q 95 -339 167 -276 q -66 -435 24 -402 q -250 -468 -156 -468 l -250 -347 q -111 -324 -179 -347 q 11 -256 -42 -302 q 99 -140 65 -210 q 133 24 133 -71 l 133 971 l 254 971 "},"Z":{"x_min":50.9375,"x_max":1468.640625,"ha":1450,"o":"m 1458 1407 l 298 95 l 1468 95 l 1468 -19 l 50 -19 l 1222 1299 l 87 1300 l 87 1407 l 1458 1407 "},"u":{"x_min":74,"x_max":1050,"ha":1031,"o":"m 195 956 l 195 468 q 224 315 195 384 q 304 198 254 247 q 420 122 354 149 q 559 96 486 96 q 701 127 635 96 q 818 205 768 158 q 897 309 868 253 q 927 415 927 365 l 927 956 l 1050 956 l 1050 -19 l 928 -19 l 928 142 q 814 49 877 81 q 694 1 751 16 q 562 -19 628 -16 q 354 23 445 -19 q 201 135 263 66 q 106 291 138 204 q 74 468 74 378 l 74 956 l 195 956 "},"1":{"x_min":66.6875,"x_max":436,"ha":417,"o":"m 436 -19 l 313 -19 l 313 1155 l 144 986 l 66 1064 l 436 1433 l 436 -19 "},"k":{"x_min":74,"x_max":671,"ha":652,"o":"m 401 440 q 483 385 436 423 q 571 291 530 348 q 642 157 613 234 q 671 -19 671 79 l 548 -19 q 527 122 548 62 q 474 225 507 182 q 402 296 442 268 q 323 341 362 324 q 251 365 284 357 q 197 374 217 372 l 197 -19 l 74 -19 l 74 1408 l 197 1408 l 197 500 q 272 518 233 503 q 352 559 312 533 q 426 622 391 585 q 489 708 461 660 q 532 815 516 756 q 548 945 548 875 l 671 945 q 657 823 671 881 q 621 713 644 764 q 571 619 599 663 q 513 542 543 576 q 453 481 483 507 q 401 440 424 455 "},"€":{"x_min":74.078125,"x_max":720.421875,"ha":702,"o":"m 720 1284 q 600 1256 652 1284 q 506 1184 547 1228 q 436 1087 465 1141 q 387 982 407 1033 q 357 887 368 931 q 344 819 347 843 l 503 819 l 503 696 l 336 696 l 336 679 l 501 679 l 501 556 l 343 556 q 358 487 347 530 q 390 393 370 443 q 441 292 411 343 q 513 199 472 241 q 605 131 553 157 q 720 105 656 105 l 720 -18 q 576 10 642 -18 q 456 86 510 39 q 361 194 402 133 q 290 319 319 255 q 246 445 262 382 q 227 558 230 508 l 74 558 l 74 681 l 219 681 l 219 696 l 74 696 l 74 819 l 226 819 q 244 932 229 869 q 288 1061 260 995 q 357 1189 316 1127 q 451 1299 398 1251 q 572 1377 505 1347 q 719 1407 639 1407 l 720 1284 "},"<":{"x_min":55.5625,"x_max":865.8125,"ha":847,"o":"m 863 969 l 294 647 l 865 325 l 865 184 l 55 647 l 863 1111 l 863 969 "},"t":{"x_min":74,"x_max":586,"ha":567,"o":"m 198 1408 l 198 973 l 586 973 l 586 850 l 197 850 l 197 461 q 225 321 197 386 q 306 207 254 255 q 429 131 358 159 q 585 104 500 104 l 585 -19 q 372 22 467 -19 q 211 130 277 63 q 109 284 144 197 q 74 460 74 370 l 74 1408 l 198 1408 "},"W":{"x_min":74,"x_max":1815,"ha":1796,"o":"m 1815 1408 l 1815 -44 l 938 831 l 74 -31 l 74 1408 l 192 1408 l 192 242 l 941 992 l 1697 237 l 1697 1408 l 1815 1408 "},"v":{"x_min":62.046875,"x_max":1100.09375,"ha":1070,"o":"m 581 193 l 974 956 l 1100 956 l 581 -40 l 62 954 l 188 954 l 581 193 "},">":{"x_min":74.078125,"x_max":872.296875,"ha":835,"o":"m 872 654 l 74 198 l 74 337 l 635 653 l 75 971 l 75 1111 l 872 654 "},"s":{"x_min":74,"x_max":708,"ha":689,"o":"m 393 839 q 315 807 344 839 q 286 727 286 775 q 290 695 286 714 q 308 658 294 676 q 349 627 323 640 q 422 615 376 615 q 517 592 467 615 q 610 529 568 570 q 680 430 652 488 q 708 304 708 373 q 699 235 708 271 q 672 163 690 199 q 628 94 655 127 q 564 36 601 61 q 481 -3 528 11 q 378 -18 435 -18 q 264 4 319 -18 q 167 68 209 27 q 99 164 124 108 q 74 286 74 220 l 192 286 q 204 219 192 253 q 242 156 217 184 q 303 110 267 128 q 383 92 339 92 q 457 104 420 92 q 524 144 494 117 q 572 209 553 170 q 591 301 591 249 q 572 378 591 342 q 527 440 553 413 q 472 481 501 466 q 422 497 442 497 q 332 509 378 497 q 249 548 286 521 q 190 619 213 575 q 167 726 167 662 q 178 795 167 755 q 215 870 189 834 q 285 930 241 905 q 392 956 328 956 q 477 942 441 956 q 538 907 513 929 q 579 858 564 885 q 604 804 595 831 q 617 754 614 778 q 620 715 620 730 l 503 715 q 492 768 503 745 q 466 807 482 791 q 430 831 450 823 q 393 839 411 839 "},"B":{"x_min":74,"x_max":1045,"ha":1026,"o":"m 74 14 l 74 1408 l 175 1408 q 239 1401 197 1408 q 332 1375 281 1394 q 437 1323 383 1355 q 535 1237 490 1290 q 609 1111 579 1185 q 641 939 638 1038 q 774 897 716 925 q 874 834 831 870 q 945 757 916 798 q 994 675 974 715 q 1045 466 1038 578 q 1016 287 1045 363 q 941 157 987 211 q 840 69 895 104 q 730 15 784 34 q 630 -11 676 -4 q 559 -19 584 -19 q 478 -10 524 -19 q 382 17 432 -2 q 284 70 333 37 q 194 154 235 104 l 194 14 l 74 14 m 195 1290 l 195 943 l 530 943 q 506 1063 527 1011 q 454 1152 485 1115 q 385 1215 423 1190 q 311 1255 348 1240 q 244 1279 275 1271 q 195 1290 213 1287 m 562 99 q 701 127 635 99 q 818 205 767 156 q 898 320 868 254 q 929 461 929 386 q 900 602 929 536 q 821 717 871 668 q 704 794 772 766 q 559 823 637 823 l 195 823 l 195 478 q 225 322 195 392 q 305 203 255 252 q 422 126 356 153 q 562 99 488 99 "},"?":{"x_min":74,"x_max":632,"ha":613,"o":"m 291 422 l 291 955 l 328 955 q 340 958 328 952 q 352 966 344 962 q 414 980 384 966 q 466 1017 444 994 q 502 1069 489 1041 q 516 1128 516 1098 q 502 1186 516 1156 q 465 1239 488 1216 q 413 1278 442 1263 q 352 1293 384 1293 q 292 1279 321 1293 q 243 1242 264 1266 q 209 1185 222 1219 q 197 1114 197 1152 l 74 1114 q 96 1229 74 1175 q 156 1322 118 1283 q 245 1385 195 1362 q 353 1408 296 1408 q 460 1387 409 1408 q 549 1329 510 1366 q 609 1241 587 1293 q 632 1129 632 1190 q 611 1023 632 1071 q 557 941 590 976 q 486 884 525 905 q 414 857 448 862 l 414 422 l 291 422 m 355 149 q 414 124 390 149 q 439 64 439 99 q 414 5 439 29 q 355 -19 390 -19 q 296 5 320 -19 q 272 64 272 29 q 296 124 272 99 q 355 149 320 149 "},"H":{"x_min":74,"x_max":1060,"ha":1041,"o":"m 197 953 l 938 953 l 938 1408 l 1060 1408 l 1060 -19 l 937 -19 l 937 830 l 197 830 l 197 -19 l 74 -19 l 74 1408 l 197 1408 l 197 953 "},"c":{"x_min":74,"x_max":1000.25,"ha":973,"o":"m 878 620 q 834 687 858 658 q 784 737 810 716 q 730 773 757 759 q 677 798 703 787 q 551 824 615 820 q 399 791 465 824 q 285 706 332 759 q 214 589 239 654 q 190 458 190 523 q 215 328 190 392 q 287 212 240 263 q 401 128 334 160 q 551 97 467 97 q 675 122 615 99 q 728 145 701 131 q 782 181 755 159 q 834 231 809 202 q 878 297 859 259 l 1000 297 q 948 193 978 238 q 882 114 917 147 q 808 58 846 81 q 732 21 769 36 q 550 -18 646 -13 q 397 4 465 -18 q 276 65 329 27 q 185 153 223 104 q 122 255 147 202 q 85 360 97 308 q 74 457 74 413 q 85 554 74 502 q 121 661 97 607 q 183 764 145 714 q 274 852 221 813 q 396 914 327 891 q 550 938 465 938 q 734 898 647 933 q 809 860 771 883 q 884 803 848 836 q 949 724 919 770 q 999 620 978 679 l 878 620 "},"&":{"x_min":74,"x_max":1046.578125,"ha":1014,"o":"m 891 243 l 1046 -19 l 896 -19 l 795 149 q 775 129 785 139 q 754 108 766 118 q 721 77 739 93 q 682 47 703 62 q 589 0 640 18 q 467 -19 537 -19 q 329 6 399 -19 q 202 81 259 31 q 110 204 146 131 q 74 374 74 278 q 81 457 74 419 q 102 527 89 495 q 132 584 115 559 q 169 629 150 610 l 393 853 q 336 947 358 911 q 301 1003 314 983 q 279 1039 286 1028 q 257 1094 260 1067 q 254 1151 254 1120 q 271 1245 254 1199 q 322 1328 289 1292 q 405 1386 356 1364 q 516 1408 453 1408 q 602 1394 565 1408 q 667 1358 640 1380 q 714 1308 695 1336 q 744 1251 733 1280 q 760 1197 755 1223 q 766 1152 766 1170 q 764 1127 766 1145 q 757 1086 762 1108 q 742 1041 752 1064 q 719 1005 733 1019 l 548 833 l 831 352 l 1032 555 l 1032 382 l 891 243 m 619 1086 q 628 1100 624 1091 q 636 1119 632 1109 q 641 1137 639 1129 q 643 1150 643 1145 q 633 1197 643 1173 q 607 1238 624 1220 q 565 1268 589 1256 q 511 1280 541 1280 q 453 1267 477 1280 q 413 1237 429 1255 q 391 1196 398 1218 q 384 1152 384 1173 q 389 1118 384 1133 q 405 1085 395 1103 q 410 1076 406 1083 q 423 1054 414 1069 q 448 1011 432 1038 q 486 944 463 985 q 548 1011 523 984 q 590 1055 574 1039 q 619 1086 608 1075 m 296 582 q 230 488 255 537 q 205 375 205 438 q 226 264 205 313 q 284 181 248 215 q 367 129 320 147 q 466 111 414 111 q 545 121 512 111 q 601 146 577 132 q 640 175 624 160 q 655 189 649 183 q 666 200 662 196 q 685 218 668 202 q 735 266 701 235 l 453 743 q 411 699 430 719 q 376 662 391 678 l 343 630 q 321 607 333 619 q 296 582 309 595 "},"I":{"x_min":73.8125,"x_max":1058.921875,"ha":1040,"o":"m 1058 1407 l 1058 1284 l 645 1284 l 645 105 l 1058 105 l 1058 -18 l 73 -18 l 73 105 l 522 105 l 522 1284 l 73 1284 l 73 1407 l 1058 1407 "},"G":{"x_min":74,"x_max":1493,"ha":1474,"o":"m 1344 880 q 1330 927 1344 892 q 1287 1008 1316 962 q 1212 1104 1257 1054 q 1105 1196 1168 1154 q 962 1265 1042 1238 q 781 1293 881 1293 q 601 1266 683 1293 q 453 1193 519 1239 q 338 1088 388 1148 q 255 961 288 1028 q 205 827 222 895 q 189 695 189 758 q 204 572 189 638 q 252 440 220 505 q 334 313 285 374 q 450 206 384 253 q 600 131 516 159 q 786 103 684 103 q 965 128 884 103 q 1110 197 1045 154 q 1222 294 1174 240 q 1302 404 1270 348 q 1352 514 1335 460 q 1373 609 1369 567 l 739 609 l 739 730 l 1493 730 l 1493 -19 l 1374 -18 l 1373 303 q 1294 199 1338 244 q 1203 121 1251 154 q 1105 65 1154 88 q 1009 27 1055 42 q 785 -11 900 -7 q 572 19 669 -11 q 395 101 475 49 q 256 222 316 152 q 155 370 196 291 q 94 531 115 448 q 74 693 74 614 q 94 857 74 773 q 155 1020 114 941 q 255 1169 195 1099 q 393 1293 314 1240 q 569 1376 472 1345 q 783 1408 667 1408 q 993 1376 898 1408 q 1164 1293 1089 1344 q 1297 1182 1240 1243 q 1390 1062 1353 1120 q 1446 955 1427 1004 q 1465 880 1465 905 l 1344 880 "},"(":{"x_min":74,"x_max":573.890625,"ha":556,"o":"m 573 -18 q 375 37 466 -18 q 216 188 284 92 q 111 414 149 283 q 74 695 74 545 q 111 975 74 845 q 216 1201 149 1106 q 375 1352 284 1297 q 573 1408 467 1408 l 573 1285 q 437 1245 504 1285 q 316 1130 370 1206 q 229 944 262 1054 q 197 692 197 834 q 229 441 197 551 q 315 257 262 332 q 436 144 369 182 q 573 106 504 106 l 573 -18 "},"`":{"x_min":61.109375,"x_max":396.328125,"ha":365,"o":"m 203 1408 l 396 1070 l 253 1070 l 61 1408 l 203 1408 "},"U":{"x_min":74,"x_max":1521,"ha":1502,"o":"m 197 1408 l 197 690 q 217 541 197 614 q 276 401 237 467 q 368 279 314 335 q 489 183 422 223 q 634 119 556 142 q 797 97 711 97 q 958 118 881 97 q 1102 179 1035 140 q 1223 273 1169 219 q 1316 394 1278 328 q 1376 535 1355 460 q 1398 689 1398 610 l 1398 1408 l 1521 1408 l 1521 -18 l 1398 -18 l 1398 294 q 1315 191 1360 236 q 1221 113 1270 146 q 1121 58 1172 81 q 1023 21 1071 36 q 797 -18 912 -12 q 603 8 696 -18 q 430 82 510 34 q 284 194 349 129 q 171 339 218 260 q 99 507 124 419 q 74 691 74 596 l 74 1408 l 197 1408 "},"F":{"x_min":74,"x_max":1059.109375,"ha":1041,"o":"m 1059 1284 l 197 1284 l 197 953 l 841 953 l 841 832 l 197 832 l 197 -19 l 74 -19 l 74 1407 l 1059 1407 l 1059 1284 "},"r":{"x_min":74,"x_max":574.59375,"ha":557,"o":"m 193 915 l 193 760 q 247 811 218 789 q 308 850 277 833 q 372 877 340 866 q 433 896 404 889 q 574 916 503 913 l 574 797 q 449 780 504 797 q 351 738 394 764 q 279 678 309 711 q 230 612 249 646 q 202 549 211 579 q 194 499 194 520 l 194 -19 l 74 -19 l 74 915 l 193 915 "},":":{"x_min":74,"x_max":246,"ha":227,"o":"m 160 447 q 193 440 177 447 q 220 421 209 433 q 239 394 232 410 q 246 361 246 378 q 239 327 246 343 q 220 300 232 311 q 193 281 209 288 q 160 275 177 275 q 126 281 142 275 q 99 300 110 288 q 80 327 87 311 q 74 361 74 343 q 80 394 74 378 q 99 421 87 410 q 126 440 110 433 q 160 447 142 447 m 74 68 q 80 101 74 85 q 99 128 87 117 q 126 147 110 140 q 160 154 142 154 q 193 147 177 154 q 220 128 209 140 q 239 101 232 117 q 246 68 246 85 q 239 34 246 50 q 220 7 232 18 q 193 -11 209 -4 q 160 -18 177 -18 q 126 -11 142 -18 q 99 7 110 -4 q 80 34 87 18 q 74 68 74 50 "},"x":{"x_min":51.859375,"x_max":1035.265625,"ha":994,"o":"m 614 459 l 1035 -19 l 888 -19 l 543 377 l 198 -19 l 52 -19 l 473 459 l 51 945 l 191 945 l 542 540 l 895 945 l 1034 945 l 614 459 "},"*":{"x_min":66.03125,"x_max":544.421875,"ha":519,"o":"m 362 1407 l 362 1241 l 488 1320 l 544 1230 l 412 1153 l 544 1076 l 488 991 l 362 1064 l 362 906 l 254 906 l 254 1062 l 125 986 l 66 1074 l 206 1153 l 66 1231 l 121 1321 l 254 1246 l 254 1407 l 362 1407 "},"V":{"x_min":62.046875,"x_max":1565.859375,"ha":1536,"o":"m 191 1408 l 813 211 l 1437 1408 l 1565 1408 l 813 -40 l 62 1408 l 191 1408 "},"h":{"x_min":74,"x_max":1059,"ha":1040,"o":"m 198 1408 l 197 798 q 252 853 223 829 q 313 895 282 877 q 375 925 344 913 q 435 945 406 937 q 571 967 501 964 q 765 926 675 967 q 919 819 854 886 q 1021 665 984 752 q 1059 486 1059 578 l 1059 -19 l 936 -19 l 936 485 q 917 603 936 550 q 869 696 899 656 q 800 766 839 736 q 721 813 762 795 q 640 841 680 832 q 566 850 600 850 q 432 822 498 850 q 314 749 366 794 q 229 645 261 703 q 197 524 197 586 l 197 -19 l 74 -19 l 74 1408 l 198 1408 "},"0":{"x_min":74,"x_max":1049,"ha":1030,"o":"m 561 1408 q 693 1382 630 1408 q 810 1308 756 1356 q 908 1196 864 1261 q 983 1051 952 1130 q 1031 881 1014 971 q 1049 694 1049 790 q 1031 507 1049 598 q 983 337 1014 417 q 908 192 952 258 q 810 80 864 127 q 693 6 756 32 q 561 -19 630 -19 q 429 6 492 -19 q 312 80 366 32 q 214 192 258 127 q 139 337 170 258 q 91 507 108 417 q 74 694 74 598 q 91 881 74 790 q 139 1051 108 971 q 214 1196 170 1130 q 312 1308 258 1261 q 429 1382 366 1356 q 561 1408 492 1408 m 925 694 q 895 928 925 820 q 815 1115 865 1036 q 699 1239 765 1194 q 561 1285 634 1285 q 423 1239 488 1285 q 307 1115 357 1194 q 227 928 257 1036 q 198 694 198 820 q 227 460 198 568 q 307 273 257 352 q 423 149 357 194 q 561 104 488 104 q 699 149 634 104 q 815 273 765 194 q 895 460 865 352 q 925 694 925 568 "},".":{"x_min":74,"x_max":228,"ha":209,"o":"m 151 135 q 205 112 183 135 q 228 58 228 90 q 205 3 228 25 q 151 -19 183 -19 q 96 3 118 -19 q 74 58 74 25 q 96 112 74 90 q 151 135 118 135 "},"@":{"x_min":74,"x_max":1029,"ha":1010,"o":"m 551 937 q 732 900 645 937 q 884 799 818 863 q 989 647 950 735 q 1029 459 1029 560 q 988 281 1024 366 q 949 207 972 245 q 892 132 926 168 q 812 63 858 95 q 707 6 766 30 l 707 244 q 653 214 681 225 q 604 199 626 204 q 552 193 577 193 q 460 208 508 193 q 371 256 412 223 q 304 340 330 289 q 278 462 278 391 q 303 584 278 533 q 370 668 329 635 q 459 717 410 701 q 552 733 507 733 q 604 727 577 732 q 654 713 627 722 q 706 685 680 703 l 706 733 l 785 733 l 820 733 l 820 699 l 820 214 q 871 293 853 251 q 898 374 889 336 q 910 461 908 418 q 877 611 910 540 q 784 732 845 682 q 679 795 738 772 q 550 818 620 818 q 397 786 464 818 q 285 704 331 755 q 216 589 240 653 q 193 460 193 525 q 227 302 193 369 q 316 189 261 234 q 438 123 371 145 q 571 102 505 102 l 571 -18 q 420 2 489 -18 q 297 57 352 22 q 200 138 241 92 q 130 238 158 185 q 87 347 101 291 q 74 459 74 404 q 93 601 74 536 q 147 719 112 666 q 227 813 181 773 q 326 881 273 854 q 437 923 379 909 q 551 937 495 937 m 707 459 q 694 519 707 490 q 661 568 682 547 q 611 601 640 589 q 552 614 583 614 q 491 601 519 614 q 442 568 463 589 q 409 519 421 547 q 397 459 397 490 q 409 399 397 427 q 442 350 421 371 q 491 317 463 329 q 552 305 519 305 q 611 317 583 305 q 661 350 640 329 q 694 399 682 371 q 707 459 707 427 "},"f":{"x_min":74,"x_max":585,"ha":567,"o":"m 584 1292 q 418 1257 490 1292 q 298 1170 346 1223 q 223 1054 249 1117 q 194 933 197 990 l 585 933 l 585 818 l 197 818 l 197 -19 l 74 -19 l 74 912 q 94 1056 74 989 q 150 1178 114 1123 q 235 1275 186 1232 q 340 1347 283 1318 q 459 1391 397 1376 q 584 1407 521 1407 l 584 1292 "},";":{"x_min":74,"x_max":245,"ha":226,"o":"m 159 450 q 193 443 177 450 q 220 425 208 437 q 238 398 232 413 q 245 364 245 382 q 238 331 245 347 q 220 304 232 315 q 193 285 208 292 q 159 279 177 279 q 126 285 141 279 q 98 304 110 292 q 80 331 86 315 q 74 364 74 347 q 80 398 74 382 q 98 425 86 413 q 126 443 110 437 q 159 450 141 450 m 93 132 l 212 132 l 212 -189 l 93 -189 l 93 132 "},"i":{"x_min":74,"x_max":243,"ha":224,"o":"m 74 1323 q 98 1383 74 1358 q 158 1408 123 1408 q 218 1383 193 1408 q 243 1323 243 1358 q 218 1263 243 1288 q 158 1239 193 1239 q 98 1263 123 1239 q 74 1323 74 1288 m 217 966 l 217 -19 l 94 -19 l 94 966 l 217 966 "},"6":{"x_min":74,"x_max":1068,"ha":1049,"o":"m 967 1408 l 533 973 q 547 974 540 974 q 558 975 554 975 l 570 975 q 722 958 653 978 q 846 902 791 938 q 943 815 902 865 q 1012 709 984 765 q 1054 593 1040 652 q 1068 479 1068 534 q 1044 321 1068 391 q 981 195 1020 250 q 891 99 943 140 q 785 33 840 59 q 674 -5 730 6 q 570 -18 618 -18 q 420 3 488 -18 q 296 62 351 25 q 199 148 241 99 q 130 252 158 197 q 88 365 102 307 q 74 478 74 423 q 87 599 74 545 q 125 699 101 653 q 182 784 149 745 q 250 859 214 823 q 355 963 284 892 q 427 1035 385 994 q 523 1131 468 1076 q 647 1254 578 1185 q 802 1408 716 1322 l 967 1408 m 947 476 q 917 622 947 554 q 836 741 887 691 q 717 822 785 792 q 571 852 648 852 q 424 822 493 852 q 305 741 356 792 q 224 622 254 691 q 195 476 195 554 q 224 330 195 398 q 305 211 254 261 q 424 130 356 160 q 571 101 493 101 q 717 130 648 101 q 836 211 785 160 q 917 330 887 261 q 947 476 947 398 "},"A":{"x_min":74,"x_max":1058,"ha":1039,"o":"m 74 -19 l 74 914 q 93 1056 74 990 q 147 1177 112 1122 q 228 1275 181 1231 q 329 1347 274 1318 q 444 1392 384 1377 q 565 1408 504 1408 q 687 1393 626 1408 q 802 1350 747 1378 q 903 1279 857 1321 q 984 1182 950 1237 q 1038 1060 1019 1128 q 1058 915 1058 993 l 1058 -19 l 935 -19 l 935 811 l 197 811 l 197 -19 l 74 -19 m 942 934 q 911 1060 938 996 q 835 1176 883 1124 q 718 1260 786 1228 q 566 1293 651 1293 q 414 1260 481 1293 q 298 1176 347 1228 q 222 1061 250 1125 q 191 934 194 996 l 942 934 "},"n":{"x_min":74,"x_max":1050,"ha":1031,"o":"m 197 791 q 253 845 219 817 q 335 898 288 874 q 438 938 381 922 q 561 955 495 955 q 686 938 625 955 q 802 890 748 921 q 901 816 856 859 q 980 720 947 773 q 1031 605 1012 667 q 1050 477 1050 543 l 1050 -19 l 927 -19 l 927 478 q 904 602 927 538 q 837 717 882 665 q 723 802 791 769 q 562 836 654 836 q 449 819 500 836 q 357 776 397 803 q 286 716 316 749 q 235 647 256 683 q 205 579 215 612 q 196 521 196 546 l 196 390 q 196 221 196 323 q 197 -19 196 119 l 74 -19 l 74 955 l 197 955 l 197 791 "},"O":{"x_min":74,"x_max":1500,"ha":1481,"o":"m 787 1407 q 976 1381 885 1407 q 1146 1309 1067 1356 q 1291 1198 1225 1263 q 1402 1053 1356 1133 q 1474 883 1449 974 q 1500 694 1500 792 q 1474 505 1500 596 q 1402 335 1449 414 q 1291 190 1356 255 q 1146 79 1225 125 q 976 7 1067 32 q 787 -18 885 -18 q 597 7 688 -18 q 427 79 506 32 q 282 190 348 125 q 171 335 217 255 q 99 505 124 414 q 74 694 74 596 q 99 883 74 792 q 171 1053 124 974 q 282 1198 217 1133 q 427 1309 348 1263 q 597 1381 506 1356 q 787 1407 688 1407 m 1380 694 q 1333 925 1380 817 q 1206 1113 1287 1033 q 1018 1240 1126 1194 q 787 1287 910 1287 q 555 1240 663 1287 q 367 1113 447 1194 q 240 925 286 1033 q 194 694 194 817 q 240 463 194 571 q 367 275 286 355 q 555 148 447 194 q 787 102 663 102 q 1018 148 910 102 q 1206 275 1126 194 q 1333 463 1287 355 q 1380 694 1380 571 "},"3":{"x_min":67.484375,"x_max":967.859375,"ha":923,"o":"m 967 1407 l 517 957 q 674 911 598 948 q 809 810 749 873 q 904 662 868 747 q 941 477 941 577 q 906 295 941 384 q 807 136 872 206 q 650 24 743 67 q 441 -18 558 -18 q 307 3 374 -15 q 247 24 278 11 q 185 54 216 36 q 123 97 153 72 q 67 154 93 122 l 151 239 q 208 181 176 204 q 272 143 239 158 q 335 120 304 128 q 389 108 365 112 q 427 103 412 103 q 442 103 442 103 q 592 132 524 103 q 708 211 660 161 q 784 330 757 262 q 812 476 812 398 q 788 605 812 539 q 719 725 765 671 q 605 813 674 778 q 445 847 536 847 q 371 839 408 846 q 302 819 338 832 q 234 781 265 805 l 209 809 l 692 1292 l 73 1292 l 73 1407 l 967 1407 "},"]":{"x_min":74.125,"x_max":442,"ha":423,"o":"m 442 1407 l 442 -19 l 74 -19 l 74 98 l 326 98 l 326 1292 l 74 1292 l 74 1407 l 442 1407 "},"m":{"x_min":74,"x_max":1902,"ha":1883,"o":"m 988 706 q 1045 785 1007 742 q 1138 867 1084 829 q 1262 930 1193 905 q 1413 956 1331 956 q 1532 940 1473 956 q 1646 894 1592 924 q 1747 822 1701 865 q 1828 726 1794 779 q 1882 610 1863 673 q 1902 475 1902 547 l 1902 -19 l 1781 -19 l 1781 478 q 1755 606 1781 542 q 1683 721 1730 670 q 1567 805 1636 773 q 1413 838 1499 838 q 1263 806 1330 838 q 1148 724 1196 775 q 1074 610 1100 674 q 1049 479 1049 546 l 1049 -19 l 928 -19 l 928 480 q 906 599 928 536 q 840 715 885 662 q 725 803 795 768 q 559 838 656 838 q 440 819 493 838 q 347 772 387 801 q 277 707 307 743 q 230 637 248 672 q 203 571 212 602 q 195 522 195 540 l 195 -19 l 74 -19 l 74 956 l 195 956 l 195 794 q 254 849 218 820 q 337 901 290 878 q 441 940 385 925 q 562 956 498 956 q 715 930 645 956 q 839 867 785 905 q 931 785 893 829 q 988 706 968 742 "},"9":{"x_min":74,"x_max":1070,"ha":1051,"o":"m 174 -19 l 608 415 q 581 413 591 413 l 571 413 q 428 426 494 408 q 306 479 362 444 q 207 563 250 514 q 135 669 164 612 q 89 787 105 725 q 74 909 74 848 q 92 1048 74 983 q 146 1170 111 1114 q 227 1269 180 1225 q 329 1344 274 1313 q 446 1390 385 1374 q 572 1407 508 1407 q 758 1372 668 1407 q 917 1273 848 1338 q 1028 1116 986 1208 q 1070 909 1070 1024 q 1051 774 1070 832 q 1004 668 1033 716 q 936 578 974 619 q 857 497 897 537 q 752 392 821 460 q 683 323 722 362 q 593 233 644 283 q 479 119 542 182 q 340 -19 416 56 l 174 -19 m 947 911 q 917 1057 947 988 q 836 1176 887 1125 q 717 1257 786 1227 q 571 1287 649 1287 q 425 1257 493 1287 q 306 1176 356 1227 q 226 1057 256 1125 q 197 911 197 988 q 226 764 197 833 q 306 645 256 696 q 425 565 356 595 q 571 536 493 536 q 717 565 649 536 q 836 645 786 595 q 917 764 887 696 q 947 911 947 833 "},"l":{"x_min":74,"x_max":585,"ha":567,"o":"m 197 1408 l 197 474 q 219 343 197 409 q 288 223 241 277 q 409 135 335 169 q 585 101 482 101 l 585 -18 q 368 24 463 -18 q 208 136 273 67 q 108 294 142 206 q 74 475 74 382 l 74 1408 l 197 1408 "},"8":{"x_min":74,"x_max":1059,"ha":1040,"o":"m 849 1128 q 838 1059 848 1094 q 813 994 831 1029 q 764 929 796 958 q 821 900 789 919 q 885 851 852 881 q 949 784 918 822 q 1004 699 980 746 q 1044 594 1029 651 q 1059 473 1059 538 q 1018 277 1059 368 q 910 121 978 187 q 753 18 842 55 q 566 -19 663 -19 q 454 -5 511 -19 q 341 37 396 8 q 238 106 286 65 q 153 202 189 147 q 95 325 116 257 q 74 473 74 393 q 89 602 74 544 q 131 707 105 660 q 188 792 156 755 q 255 856 221 829 q 320 901 289 883 q 375 928 351 919 q 326 991 343 957 q 302 1057 309 1026 q 292 1128 292 1093 q 320 1254 292 1202 q 391 1341 348 1307 q 481 1391 433 1375 q 570 1408 529 1408 q 668 1390 618 1408 q 758 1337 718 1372 q 823 1250 798 1303 q 849 1128 849 1198 m 728 1128 q 715 1189 728 1160 q 681 1238 703 1217 q 632 1272 660 1260 q 571 1285 603 1285 q 510 1272 539 1285 q 461 1238 482 1260 q 427 1189 440 1217 q 415 1128 415 1160 q 427 1067 415 1096 q 461 1018 440 1039 q 510 984 482 997 q 571 972 539 972 q 632 984 603 972 q 681 1018 660 997 q 715 1067 703 1039 q 728 1128 728 1096 m 939 471 q 909 615 939 547 q 830 733 880 682 q 712 812 779 783 q 568 842 644 842 q 423 812 491 842 q 305 733 356 783 q 226 615 255 682 q 197 471 197 547 q 226 326 197 394 q 305 208 255 259 q 423 129 356 158 q 568 100 491 100 q 712 129 644 100 q 830 208 779 158 q 909 326 880 259 q 939 471 939 394 "},"p":{"x_min":74,"x_max":1038,"ha":1019,"o":"m 195 949 l 195 786 q 246 840 218 817 q 304 880 274 862 q 365 909 334 897 q 423 928 396 921 q 557 949 489 946 q 752 909 663 949 q 904 803 841 870 q 1002 649 967 736 q 1038 466 1038 561 q 1003 283 1038 370 q 905 130 968 197 q 753 25 841 64 q 559 -13 665 -13 q 424 6 490 -11 q 366 25 396 13 q 305 53 335 37 q 247 93 275 70 q 195 146 219 116 l 195 -477 l 74 -477 l 74 949 l 195 949 m 919 467 q 890 608 919 542 q 812 723 861 674 q 697 801 763 772 q 556 830 631 830 q 414 801 481 830 q 299 723 348 772 q 221 608 250 674 q 193 467 193 542 q 221 326 193 392 q 299 210 249 260 q 414 133 348 161 q 556 105 481 105 q 697 133 631 105 q 812 210 763 161 q 890 326 861 260 q 919 467 919 392 "},"4":{"x_min":48.015625,"x_max":1064.671875,"ha":1046,"o":"m 1064 733 l 1064 609 l 873 609 l 873 -19 l 749 -19 l 749 610 l 48 610 l 872 1433 l 873 733 l 1064 733 m 751 733 l 750 1146 l 336 733 l 751 733 "},"R":{"x_min":74,"x_max":1037,"ha":1018,"o":"m 196 1408 l 196 1245 q 251 1299 221 1276 q 310 1339 280 1321 q 369 1368 340 1356 q 427 1387 399 1380 q 555 1408 492 1405 q 753 1365 665 1408 q 905 1255 842 1323 q 1002 1100 968 1187 q 1037 926 1037 1014 q 1017 783 1037 850 q 962 662 997 717 q 880 565 927 608 q 780 495 834 523 q 670 453 727 467 q 556 444 612 440 l 546 444 q 520 447 535 444 l 986 -19 l 817 -19 l 195 604 l 195 -19 l 74 -19 l 74 1408 l 196 1408 m 923 924 q 894 1066 923 999 q 816 1182 865 1133 q 700 1261 766 1232 q 557 1290 633 1290 q 415 1261 481 1290 q 298 1182 348 1232 q 220 1066 249 1133 q 192 924 192 999 q 220 781 192 848 q 298 665 249 714 q 415 586 348 615 q 557 558 481 558 q 700 586 633 558 q 816 665 766 615 q 894 781 865 714 q 923 924 923 848 "},"\r":{"x_min":0,"x_max":0,"ha":0},"o":{"x_min":74,"x_max":1045,"ha":1026,"o":"m 559 952 q 748 914 659 952 q 902 809 836 876 q 1007 655 969 743 q 1045 466 1045 566 q 1007 277 1045 366 q 902 123 969 189 q 748 18 836 56 q 559 -19 659 -19 q 370 18 459 -19 q 216 123 282 56 q 111 277 149 189 q 74 466 74 366 q 111 655 74 566 q 216 809 149 743 q 370 914 282 876 q 559 952 459 952 m 928 466 q 898 609 928 542 q 819 726 869 676 q 702 805 769 776 q 559 835 635 835 q 415 805 482 835 q 298 726 348 776 q 219 609 248 676 q 191 466 191 542 q 219 322 191 389 q 298 205 248 255 q 415 126 348 155 q 559 98 482 98 q 702 126 635 98 q 819 205 769 155 q 898 322 869 255 q 928 466 928 389 "},"5":{"x_min":67,"x_max":943,"ha":924,"o":"m 943 1284 l 193 1284 l 193 906 q 277 945 232 931 q 359 965 321 959 q 446 975 403 973 q 649 932 558 975 q 806 821 741 890 q 907 663 871 751 q 943 479 943 574 q 901 275 943 366 q 791 118 860 183 q 632 17 722 53 q 445 -18 542 -18 q 313 3 379 -15 q 252 23 284 11 q 189 53 221 35 q 126 94 157 70 q 67 150 95 118 l 163 240 q 245 162 197 190 q 337 122 293 134 q 412 107 381 109 q 444 105 443 105 q 614 140 543 105 q 730 230 684 175 q 798 350 776 284 q 820 477 820 416 q 786 640 820 569 q 698 758 752 710 q 577 831 644 806 q 444 856 509 856 q 327 836 380 856 q 229 783 273 817 q 146 702 184 749 q 74 599 108 655 l 74 1407 l 943 1407 l 943 1284 "}}}
